HIERARCHY
ROOT joint_Root
{
	OFFSET 0.0 0.0 0.0
	CHANNELS 6 Xposition Yposition Zposition Zrotation Xrotation Yrotation 
	JOINT Hips
	{
		OFFSET -17.1583 93.1646 452.98
		CHANNELS 6 Xposition Yposition Zposition Zrotation Xrotation Yrotation 
		JOINT Spine
		{
			OFFSET 15.7357 0.0 0.0
			CHANNELS 6 Xposition Yposition Zposition Zrotation Xrotation Yrotation 
			JOINT Chest
			{
				OFFSET 8.98455 -0.406207 0.0
				CHANNELS 6 Xposition Yposition Zposition Zrotation Xrotation Yrotation 
				JOINT Neck
				{
					OFFSET 16.3773 0.0 0.0
					CHANNELS 6 Xposition Yposition Zposition Zrotation Xrotation Yrotation 
					JOINT Head
					{
						OFFSET 6.45672 0.0 0.0
						CHANNELS 6 Xposition Yposition Zposition Zrotation Xrotation Yrotation 
						End Site
						{
							OFFSET 0.0 0.0 0.0
						}
					}
				}
				JOINT Shoulder_L
				{
					OFFSET 12.9942 -0.242716 4.98039
					CHANNELS 6 Xposition Yposition Zposition Zrotation Xrotation Yrotation 
					JOINT UpperArm_L
					{
						OFFSET 5.34809 0.0 0.0
						CHANNELS 6 Xposition Yposition Zposition Zrotation Xrotation Yrotation 
						JOINT LowerArm_L
						{
							OFFSET 24.3286 1.87007e-05 0.0
							CHANNELS 6 Xposition Yposition Zposition Zrotation Xrotation Yrotation 
							JOINT Hand_L
							{
								OFFSET 22.2916 0.0 0.0
								CHANNELS 6 Xposition Yposition Zposition Zrotation Xrotation Yrotation 
								End Site
								{
									OFFSET 0.0 0.0 0.0
								}
							}
						}
					}
				}
				JOINT Shoulder_R
				{
					OFFSET 12.9945 -0.242716 -4.98039
					CHANNELS 6 Xposition Yposition Zposition Zrotation Xrotation Yrotation 
					JOINT UpperArm_R
					{
						OFFSET -5.34813 0.0 0.0
						CHANNELS 6 Xposition Yposition Zposition Zrotation Xrotation Yrotation 
						JOINT LowerArm_R
						{
							OFFSET -24.3289 0.000322201 0.0
							CHANNELS 6 Xposition Yposition Zposition Zrotation Xrotation Yrotation 
							JOINT Hand_R
							{
								OFFSET -22.2915 -0.000108084 0.0
								CHANNELS 6 Xposition Yposition Zposition Zrotation Xrotation Yrotation 
								End Site
								{
									OFFSET 0.0 0.0 0.0
								}
							}
						}
					}
				}
			}
		}
		JOINT UpperLeg_L
		{
			OFFSET -2.19248 -6.46944 0.0
			CHANNELS 6 Xposition Yposition Zposition Zrotation Xrotation Yrotation 
			JOINT LowerLeg_L
			{
				OFFSET 39.0811 0.0 -1.23785e-05
				CHANNELS 6 Xposition Yposition Zposition Zrotation Xrotation Yrotation 
				JOINT Foot_L
				{
					OFFSET 40.9854 0.0 -1.26872e-05
					CHANNELS 6 Xposition Yposition Zposition Zrotation Xrotation Yrotation 
					JOINT Toes_L
					{
						OFFSET 11.7543 0.0 0.0
						CHANNELS 6 Xposition Yposition Zposition Zrotation Xrotation Yrotation 
						End Site
						{
							OFFSET 0.0 0.0 0.0
						}
					}
				}
			}
		}
		JOINT UpperLeg_R
		{
			OFFSET -2.19251 6.46944 0.0
			CHANNELS 6 Xposition Yposition Zposition Zrotation Xrotation Yrotation 
			JOINT LowerLeg_R
			{
				OFFSET -39.0811 -0.00228153 -0.0401928
				CHANNELS 6 Xposition Yposition Zposition Zrotation Xrotation Yrotation 
				JOINT Foot_R
				{
					OFFSET -40.9854 0.0 0.0
					CHANNELS 6 Xposition Yposition Zposition Zrotation Xrotation Yrotation 
					JOINT Toes_R
					{
						OFFSET -11.7543 0.0 0.0
						CHANNELS 6 Xposition Yposition Zposition Zrotation Xrotation Yrotation 
						End Site
						{
							OFFSET 0.0 0.0 0.0
						}
					}
				}
			}
		}
	}
}
MOTION
Frames:	9
Frame Time:	0.0333333
0.000000 0.000000 0.000000 0.000000 0.000000 -0.000000 -0.476583 92.555100 4.131280 86.559700 -3.905450 2.994340 15.735700 0.000005 -0.000001 99.527900 87.271100 -105.509000 8.984550 -0.406207 -0.000000 -2.281170 1.426360 -11.932700 16.377300 -0.000001 -0.000001 0.980365 0.569149 -8.492530 6.456720 -0.000001 -0.000000 3.040340 3.201150 -22.919600 12.994200 -0.242716 4.980390 -93.064600 9.951460 -72.787100 5.348090 -0.000007 -0.000001 -57.246200 1.002450 2.823900 24.328600 0.000019 0.000005 12.416300 27.280000 -25.657200 22.291600 -0.000001 0.000005 1.967400 4.855380 10.256500 12.994500 -0.242716 -4.980390 94.411000 -8.687190 -62.945600 -5.348130 -0.000001 -0.000004 -33.432700 -62.494500 -73.737400 -24.328900 0.000322 -0.000009 -0.368330 -1.735020 -11.954500 -22.291500 -0.000108 -0.000004 47.136200 5.522030 -7.448090 -2.192480 -6.469440 -0.000000 -172.324000 -7.175330 3.706400 39.081100 -0.000007 -0.000012 0.017572 -0.056429 17.296600 40.985400 -0.000006 -0.000013 -0.092484 9.959640 -71.542700 11.754300 -0.000000 0.000003 -0.002688 0.204649 -8.273080 -2.192510 6.469440 -0.000001 177.449000 5.952590 -174.017000 -39.081100 -0.002282 -0.040193 -0.019441 0.115404 11.165200 -40.985400 0.000008 0.000006 -9.475000 10.057100 -67.336100 -11.754300 -0.000006 -0.000006 -0.011026 0.278816 -5.243690
0.000000 0.000000 0.000000 0.000000 0.000000 -0.000000 -0.468639 92.562800 4.091840 86.586700 -3.863310 2.989460 15.735700 0.000005 -0.000001 99.144900 87.266000 -105.106000 8.984550 -0.406207 -0.000000 -2.267390 1.389630 -11.895100 16.377300 -0.000001 -0.000001 1.015940 0.537535 -8.428040 6.456720 -0.000001 -0.000000 2.999750 3.203370 -22.826700 12.994200 -0.242716 4.980390 -93.075800 9.957900 -72.737900 5.348090 -0.000007 -0.000001 -57.202200 1.085800 2.950790 24.328600 0.000019 0.000005 12.515500 27.227100 -25.881700 22.291600 -0.000001 0.000005 1.877650 4.854840 10.267000 12.994500 -0.242716 -4.980390 94.380500 -8.622930 -62.936200 -5.348130 -0.000001 -0.000004 -33.369200 -62.446100 -73.622300 -24.328900 0.000322 -0.000009 -0.347046 -1.659140 -11.781100 -22.291500 -0.000108 -0.000004 46.913500 5.517210 -7.243460 -2.192480 -6.469440 -0.000000 -172.373000 -7.139950 3.660820 39.081100 -0.000007 -0.000012 0.018558 -0.059602 17.295300 40.985400 -0.000006 -0.000013 -0.083012 9.956210 -71.551700 11.754300 -0.000000 0.000003 -0.002798 0.205924 -8.221200 -2.192510 6.469440 -0.000001 177.405000 6.079540 -174.055000 -39.081100 -0.002282 -0.040193 -0.019182 0.113904 11.183100 -40.985400 0.000008 0.000006 -9.423190 10.109600 -67.353100 -11.754300 -0.000006 -0.000006 -0.011143 0.279659 -5.209150
0.000000 0.000000 0.000000 0.000000 0.000000 -0.000000 -0.452906 92.562500 4.047800 86.630800 -3.794400 3.003170 15.735700 0.000005 -0.000001 98.828100 87.255900 -104.779000 8.984550 -0.406207 -0.000000 -2.244510 1.360780 -11.875500 16.377300 -0.000001 -0.000001 1.096090 0.471956 -8.393620 6.456720 -0.000001 -0.000000 2.932030 3.173630 -22.676600 12.994200 -0.242716 4.980390 -93.067600 9.906170 -72.697900 5.348090 -0.000007 -0.000001 -57.254600 1.114810 2.979320 24.328600 0.000019 0.000005 12.576200 27.186400 -26.025500 22.291600 -0.000001 0.000005 1.569130 4.862740 10.113200 12.994500 -0.242716 -4.980390 94.355700 -8.571440 -62.930800 -5.348130 -0.000001 -0.000004 -32.981300 -62.346200 -73.216600 -24.328900 0.000322 -0.000009 -0.356160 -1.755210 -11.439900 -22.291500 -0.000108 -0.000004 46.784300 5.515970 -7.191110 -2.192480 -6.469440 -0.000000 -172.427000 -7.090350 3.608210 39.081100 -0.000007 -0.000012 0.018470 -0.059196 17.328500 40.985400 -0.000006 -0.000013 -0.072017 9.974040 -71.515900 11.754300 -0.000000 0.000003 -0.002761 0.205494 -8.238730 -2.192510 6.469440 -0.000001 177.368000 6.102800 -174.120000 -39.081100 -0.002282 -0.040193 -0.018699 0.110245 11.303200 -40.985400 0.000008 0.000006 -9.319790 10.053700 -67.449100 -11.754300 -0.000006 -0.000006 -0.011122 0.279509 -5.215320
0.000000 0.000000 0.000000 0.000000 0.000000 -0.000000 -0.437027 92.570800 4.018190 86.651000 -3.733730 3.055960 15.735700 0.000005 -0.000001 98.847200 87.222100 -104.778000 8.984550 -0.406207 -0.000000 -2.178040 1.367800 -11.835600 16.377300 -0.000001 -0.000001 1.179550 0.407264 -8.343880 6.456720 -0.000001 -0.000000 2.850810 3.100910 -22.539600 12.994200 -0.242716 4.980390 -93.076000 9.927220 -72.687500 5.348090 -0.000007 -0.000001 -57.288100 1.421080 3.083340 24.328600 0.000019 0.000005 12.648600 26.868600 -26.406900 22.291600 -0.000001 0.000005 1.598420 4.863190 10.104400 12.994500 -0.242716 -4.980390 94.343000 -8.535140 -62.900600 -5.348130 -0.000001 -0.000004 -32.821600 -62.289600 -72.905800 -24.328900 0.000322 -0.000009 -0.379818 -1.908960 -11.225500 -22.291500 -0.000108 -0.000004 46.780700 5.514920 -7.147290 -2.192480 -6.469440 -0.000000 -172.451000 -7.042040 3.643700 39.081100 -0.000007 -0.000012 0.018125 -0.058217 17.293500 40.985400 -0.000006 -0.000013 -0.068585 9.985680 -71.490800 11.754300 -0.000000 0.000003 -0.002873 0.206783 -8.186250 -2.192510 6.469440 -0.000001 177.336000 6.131160 -174.078000 -39.081100 -0.002282 -0.040193 -0.018773 0.110883 11.276600 -40.985400 0.000008 0.000006 -9.369140 10.023900 -67.408900 -11.754300 -0.000006 -0.000006 -0.011182 0.279936 -5.197820
0.000000 0.000000 0.000000 0.000000 0.000000 -0.000000 -0.421051 92.576800 3.970180 86.684000 -3.648730 3.011520 15.735700 0.000005 -0.000001 98.838000 87.231100 -104.750000 8.984550 -0.406207 -0.000000 -2.196300 1.363430 -11.796800 16.377300 -0.000001 -0.000001 1.237720 0.348531 -8.301630 6.456720 -0.000001 -0.000000 2.857000 3.015630 -22.448600 12.994200 -0.242716 4.980390 -93.065800 9.898910 -72.695200 5.348090 -0.000007 -0.000001 -57.420100 1.547060 3.109920 24.328600 0.000019 0.000005 12.669400 26.648500 -26.620200 22.291600 -0.000001 0.000005 1.513590 4.869320 9.984500 12.994500 -0.242716 -4.980390 94.335500 -8.513700 -62.883000 -5.348130 -0.000001 -0.000004 -32.822300 -62.222900 -72.711500 -24.328900 0.000322 -0.000009 -0.390718 -1.997370 -11.041600 -22.291500 -0.000108 -0.000004 46.734700 5.513440 -7.087360 -2.192480 -6.469440 -0.000000 -172.537000 -6.898740 3.538140 39.081100 -0.000007 -0.000012 0.019921 -0.063936 17.305900 40.985400 -0.000006 -0.000013 -0.066909 9.895440 -71.474800 11.754300 -0.000000 0.000003 -0.002816 0.206128 -8.212930 -2.192510 6.469440 -0.000001 177.310000 6.146600 -174.149000 -39.081100 -0.002282 -0.040193 -0.018319 0.108612 11.276200 -40.985400 0.000008 0.000006 -9.318040 9.985610 -67.379600 -11.754300 -0.000006 -0.000006 -0.010643 0.276050 -5.356850
0.000000 0.000000 0.000000 0.000000 0.000000 -0.000000 -0.402189 92.590100 3.926350 86.728500 -3.549840 2.983270 15.735700 0.000005 -0.000001 98.571500 87.235800 -104.468000 8.984550 -0.406207 -0.000000 -2.203420 1.335630 -11.766800 16.377300 -0.000001 -0.000001 1.303320 0.306408 -8.276030 6.456720 -0.000001 -0.000000 2.906130 2.961000 -22.327800 12.994200 -0.242716 4.980390 -93.050000 9.834620 -72.674600 5.348090 -0.000007 -0.000001 -57.639100 1.577450 3.086620 24.328600 0.000019 0.000005 12.740400 26.567700 -26.817800 22.291600 -0.000001 0.000005 1.477740 4.873330 9.905680 12.994500 -0.242716 -4.980390 94.321000 -8.491880 -62.902000 -5.348130 -0.000001 -0.000004 -32.325000 -62.123800 -72.148200 -24.328900 0.000322 -0.000009 -0.396279 -2.093170 -10.695600 -22.291500 -0.000108 -0.000004 46.785000 5.513710 -7.096530 -2.192480 -6.469440 -0.000000 -172.600000 -6.836810 3.494990 39.081100 -0.000007 -0.000012 0.019528 -0.062989 17.225100 40.985400 -0.000006 -0.000013 -0.056111 9.936680 -71.397400 11.754300 -0.000000 0.000003 -0.002643 0.204121 -8.294590 -2.192510 6.469440 -0.000001 177.258000 6.230330 -174.177000 -39.081100 -0.002282 -0.040193 -0.017922 0.107049 11.232300 -40.985400 0.000008 0.000006 -9.414250 9.955480 -67.328300 -11.754300 -0.000006 -0.000006 -0.010928 0.278116 -5.272310
0.000000 0.000000 0.000000 0.000000 0.000000 -0.000000 -0.396481 92.598700 3.869680 86.744500 -3.449070 2.958290 15.735700 0.000005 -0.000001 98.447900 87.236400 -104.307000 8.984550 -0.406207 -0.000000 -2.204470 1.320480 -11.692400 16.377300 -0.000001 -0.000001 1.311200 0.288258 -8.262230 6.456720 -0.000001 -0.000000 3.043250 2.867890 -22.301000 12.994200 -0.242716 4.980390 -93.045300 9.805080 -72.651300 5.348090 -0.000007 -0.000001 -57.848600 1.702710 3.040030 24.328600 0.000019 0.000005 12.792000 26.441900 -27.016300 22.291600 -0.000001 0.000005 1.452650 4.871170 9.948230 12.994500 -0.242716 -4.980390 94.333100 -8.498690 -62.855500 -5.348130 -0.000001 -0.000004 -31.882500 -62.038400 -71.681700 -24.328900 0.000322 -0.000009 -0.375497 -2.053470 -10.336600 -22.291500 -0.000108 -0.000004 46.709400 5.511260 -6.994280 -2.192480 -6.469440 -0.000000 -172.605000 -6.889600 3.397860 39.081100 -0.000007 -0.000012 0.018300 -0.058972 17.240700 40.985400 -0.000006 -0.000013 -0.025447 10.097600 -71.350600 11.754300 -0.000000 0.000003 -0.002727 0.205102 -8.254650 -2.192510 6.469440 -0.000001 177.269000 6.236040 -174.240000 -39.081100 -0.002282 -0.040193 -0.017534 0.105009 11.241300 -40.985400 0.000008 0.000006 -9.376680 9.817500 -67.343400 -11.754300 -0.000006 -0.000006 -0.011204 0.280092 -5.191420
0.000000 0.000000 0.000000 0.000000 0.000000 -0.000000 -0.364881 92.606900 3.822410 86.796900 -3.344370 2.948840 15.735700 0.000005 -0.000001 98.378800 87.225900 -104.212000 8.984550 -0.406207 -0.000000 -2.183530 1.313590 -11.639700 16.377300 -0.000001 -0.000001 1.398930 0.284859 -8.292360 6.456720 -0.000001 -0.000000 3.043470 2.857960 -22.300300 12.994200 -0.242716 4.980390 -93.018200 9.724480 -72.664000 5.348090 -0.000007 -0.000001 -58.153900 1.514690 3.005930 24.328600 0.000019 0.000005 12.838200 26.319000 -27.203500 22.291600 -0.000001 0.000005 1.500390 4.872560 9.920820 12.994500 -0.242716 -4.980390 94.315800 -8.447350 -62.808600 -5.348130 -0.000001 -0.000004 -31.199000 -62.033100 -71.108200 -24.328900 0.000322 -0.000009 -0.337725 -1.925470 -9.920040 -22.291500 -0.000108 -0.000004 46.392100 5.509710 -6.929930 -2.192480 -6.469440 -0.000000 -172.670000 -6.904380 3.333810 39.081100 -0.000007 -0.000012 0.018288 -0.058952 17.234900 40.985400 -0.000006 -0.000013 -0.003898 10.161200 -71.351300 11.754300 -0.000000 0.000003 -0.003042 0.208709 -8.107900 -2.192510 6.469440 -0.000001 177.233000 6.142760 -174.265000 -39.081100 -0.002282 -0.040193 -0.017240 0.103681 11.225400 -40.985400 0.000008 0.000006 -9.332250 9.668010 -67.365700 -11.754300 -0.000006 -0.000006 -0.011028 0.278830 -5.243080
0.000000 0.000000 0.000000 0.000000 0.000000 -0.000000 -0.341339 92.620400 3.760310 86.858200 -3.267320 2.876730 15.735700 0.000005 -0.000001 97.973800 87.242900 -103.782000 8.984550 -0.406207 -0.000000 -2.214340 1.269480 -11.590300 16.377300 -0.000001 -0.000001 1.398950 0.283970 -8.330340 6.456720 -0.000001 -0.000000 3.092050 2.882950 -22.346700 12.994200 -0.242716 4.980390 -93.014500 9.686640 -72.620900 5.348090 -0.000007 -0.000001 -58.374600 1.419990 3.035630 24.328600 0.000019 0.000005 12.940700 26.143500 -27.541300 22.291600 -0.000001 0.000005 1.591780 4.870250 9.966320 12.994500 -0.242716 -4.980390 94.329600 -8.476790 -62.814600 -5.348130 -0.000001 -0.000004 -30.690000 -62.042800 -70.563500 -24.328900 0.000322 -0.000009 -0.272632 -1.593800 -9.671790 -22.291500 -0.000108 -0.000004 46.370000 5.507060 -6.820580 -2.192480 -6.469440 -0.000000 -172.763000 -6.875440 3.241980 39.081100 -0.000007 -0.000012 0.017997 -0.058337 17.145300 40.985400 -0.000006 -0.000013 0.009444 10.186700 -71.223700 11.754300 -0.000000 0.000003 -0.002614 0.203787 -8.308180 -2.192510 6.469440 -0.000001 177.184000 6.174570 -174.381000 -39.081100 -0.002282 -0.040193 -0.016411 0.099419 11.234300 -40.985400 0.000008 0.000006 -9.282110 9.577990 -67.384500 -11.754300 -0.000006 -0.000006 -0.011297 0.280751 -5.164440
